{
    "asset" : {
        "generator" : "Khronos glTF Blender I/O v3.3.27",
        "version" : "2.0"
    },
    "extensionsUsed" : [
        "KHR_materials_specular",
        "KHR_materials_ior"
    ],
    "scene" : 0,
    "scenes" : [
        {
            "name" : "Scene",
            "nodes" : [
                0
            ]
        }
    ],
    "nodes" : [
        {
            "mesh" : 0,
            "name" : "Jidoka3d",
            "rotation" : [
                0.7071068286895752,
                0,
                0,
                0.7071067094802856
            ]
        }
    ],
    "materials" : [
        {
            "doubleSided" : true,
            "extensions" : {
                "KHR_materials_specular" : {
                    "specularColorFactor" : [
                        2.371357614441398,
                        2.371357614441398,
                        2.371357614441398
                    ]
                },
                "KHR_materials_ior" : {
                    "ior" : 1.4500000476837158
                }
            },
            "name" : "Plaster",
            "pbrMetallicRoughness" : {
                "baseColorFactor" : [
                    0.3019999861717224,
                    0.6549000144004822,
                    0.819599986076355,
                    1
                ],
                "metallicFactor" : 0
            }
        },
        {
            "doubleSided" : true,
            "extensions" : {
                "KHR_materials_specular" : {
                    "specularColorFactor" : [
                        2.371357614441398,
                        2.371357614441398,
                        2.371357614441398
                    ]
                },
                "KHR_materials_ior" : {
                    "ior" : 1.4500000476837158
                }
            },
            "name" : "Plaster (1)",
            "pbrMetallicRoughness" : {
                "baseColorFactor" : [
                    0.980400025844574,
                    0.980400025844574,
                    0.980400025844574,
                    1
                ],
                "metallicFactor" : 0
            }
        }
    ],
    "meshes" : [
        {
            "name" : "Jidoka3d",
            "primitives" : [
                {
                    "attributes" : {
                        "POSITION" : 0,
                        "NORMAL" : 1,
                        "TEXCOORD_0" : 2
                    },
                    "indices" : 3,
                    "material" : 0
                },
                {
                    "attributes" : {
                        "POSITION" : 4,
                        "NORMAL" : 5,
                        "TEXCOORD_0" : 6
                    },
                    "indices" : 7,
                    "material" : 1
                }
            ]
        }
    ],
    "accessors" : [
        {
            "bufferView" : 0,
            "componentType" : 5126,
            "count" : 17394,
            "max" : [
                138.08071899414062,
                20.7242431640625,
                15
            ],
            "min" : [
                -87.41929626464844,
                -24.035751342773438,
                -15
            ],
            "type" : "VEC3"
        },
        {
            "bufferView" : 1,
            "componentType" : 5126,
            "count" : 17394,
            "type" : "VEC3"
        },
        {
            "bufferView" : 2,
            "componentType" : 5126,
            "count" : 17394,
            "type" : "VEC2"
        },
        {
            "bufferView" : 3,
            "componentType" : 5123,
            "count" : 20904,
            "type" : "SCALAR"
        },
        {
            "bufferView" : 4,
            "componentType" : 5126,
            "count" : 4884,
            "max" : [
                116.720703125,
                -13.235748291015625,
                15
            ],
            "min" : [
                -131.029296875,
                -62.70574951171875,
                -15
            ],
            "type" : "VEC3"
        },
        {
            "bufferView" : 5,
            "componentType" : 5126,
            "count" : 4884,
            "type" : "VEC3"
        },
        {
            "bufferView" : 6,
            "componentType" : 5126,
            "count" : 4884,
            "type" : "VEC2"
        },
        {
            "bufferView" : 7,
            "componentType" : 5123,
            "count" : 5868,
            "type" : "SCALAR"
        }
    ],
    "bufferViews" : [
        {
            "buffer" : 0,
            "byteLength" : 208728,
            "byteOffset" : 0,
            "target" : 34962
        },
        {
            "buffer" : 0,
            "byteLength" : 208728,
            "byteOffset" : 208728,
            "target" : 34962
        },
        {
            "buffer" : 0,
            "byteLength" : 139152,
            "byteOffset" : 417456,
            "target" : 34962
        },
        {
            "buffer" : 0,
            "byteLength" : 41808,
            "byteOffset" : 556608,
            "target" : 34963
        },
        {
            "buffer" : 0,
            "byteLength" : 58608,
            "byteOffset" : 598416,
            "target" : 34962
        },
        {
            "buffer" : 0,
            "byteLength" : 58608,
            "byteOffset" : 657024,
            "target" : 34962
        },
        {
            "buffer" : 0,
            "byteLength" : 39072,
            "byteOffset" : 715632,
            "target" : 34962
        },
        {
            "buffer" : 0,
            "byteLength" : 11736,
            "byteOffset" : 754704,
            "target" : 34963
        }
    ],
    "buffers" : [
        {
            "byteLength" : 766440,
            "uri" : "data:application/octet-stream;base64,"
        }
    ]
}
